<svg version="1.1" viewBox="0 0 64 64" class="h-full w-full" xmlns="http://www.w3.org/2000/svg">
 <path d="m1.2134 1.212h43.809a17.762 17.755 0 0 1 17.762 17.755v43.819h-61.571z" style="-inkscape-stroke:none;color:#000000;fill:#fff;stroke-width:1.3007"/>
 <path d="m0-4e-7v64h64v-45.035c1e-5 -10.461-8.5108-18.965-18.976-18.965zm2.4286 2.424h42.595c9.1533 0 16.548 7.3917 16.548 16.541v42.607h-59.143z" style="-inkscape-stroke:none;color:#000000;fill:#0f172a"/>
 <path class="cls-1" d="m26.996 19.607c0-4.8018 1.887-9.1629 4.9552-12.392h-24.745v49.567h49.586l-23.653-23.644c-3.7637-3.2976-6.1467-8.1372-6.1467-13.531zm29.797 0a12.397 12.392 0 0 1-12.397 12.392 12.397 12.392 0 0 1-12.397-12.392 12.397 12.392 0 0 1 12.397-12.392 12.397 12.392 0 0 1 12.397 12.392z" style="fill:#10182a"/>
</svg>
