<?xml version="1.0" standalone="no"?>
<!DOCTYPE svg PUBLIC "-//W3C//DTD SVG 20010904//EN"
 "http://www.w3.org/TR/2001/REC-SVG-20010904/DTD/svg10.dtd">
<svg version="1.0" xmlns="http://www.w3.org/2000/svg"
 width="700.000000pt" height="700.000000pt" viewBox="0 0 700.000000 700.000000"
 preserveAspectRatio="xMidYMid meet">
<metadata>
Created by potrace 1.14, written by Peter Selinger 2001-2017
</metadata>
<g transform="translate(0.000000,700.000000) scale(0.100000,-0.100000)"
fill="#000000" stroke="none">
<path d="M0 3500 l0 -3500 3495 0 c1922 0 3495 2 3495 5 0 5 -3328 3334 -3401
3401 -245 227 -470 553 -603 876 -72 175 -143 425 -162 568 -3 30 -8 66 -10
80 -23 162 -23 502 0 640 3 14 7 43 10 65 57 436 280 918 591 1278 l76 87
-1746 0 -1745 0 0 -3500z"/>
<path d="M4995 6980 c-329 -52 -598 -171 -850 -375 -359 -291 -579 -698 -635
-1175 -9 -78 -7 -358 3 -405 3 -11 8 -40 12 -65 11 -65 11 -69 30 -140 31
-119 77 -244 126 -340 48 -95 87 -166 102 -185 4 -5 35 -48 70 -95 73 -101
213 -245 315 -324 224 -176 531 -312 792 -351 25 -4 70 -11 100 -15 68 -10
314 -10 378 0 26 5 70 11 97 14 137 18 352 88 508 167 207 104 420 276 562
454 22 28 42 52 46 55 23 21 122 187 170 285 54 112 121 292 132 360 3 17 10
53 16 80 6 28 13 66 16 85 10 58 13 371 5 430 -5 30 -11 73 -14 95 -36 267
-181 589 -369 820 -43 53 -168 179 -227 230 -44 38 -159 125 -165 125 -2 0
-23 13 -47 29 -46 31 -220 121 -235 121 -4 0 -21 7 -36 15 -27 14 -167 61
-212 71 -38 9 -167 34 -204 40 -92 14 -378 11 -486 -6z"/>
</g>
</svg>
